/* XPM */
static char *icm_browser[] = {
/* columns rows colors chars-per-pixel */
"63 64 256 2 ",
"   c #7C0E13",
".  c #6C171B",
"X  c #5F3B3A",
"o  c #663436",
"O  c #5C554F",
"+  c #6E756A",
"@  c #90090F",
"#  c #B70003",
"$  c #AD0C11",
"%  c #8A2B2D",
"&  c #A02C2E",
"*  c #C90104",
"=  c #DD050B",
"-  c #E30309",
";  c #F2181A",
":  c #E71014",
">  c #85605A",
",  c #837468",
"<  c #976263",
"1  c #6D837A",
"2  c #003EA9",
"3  c #053CB8",
"4  c #002EB9",
"5  c #0044AC",
"6  c #024BAC",
"7  c #0045A6",
"8  c #0D4DB4",
"9  c #0745B6",
"0  c #134EB9",
"q  c #1B54BB",
"w  c #1754B7",
"e  c #0E52B0",
"r  c #2057BE",
"t  c #59569B",
"y  c #534D99",
"u  c #556D9C",
"i  c #635EA0",
"p  c #4574B4",
"a  c #4978BA",
"s  c #4C6EAB",
"d  c #6C69A6",
"f  c #7878AE",
"g  c #1010DB",
"h  c #241FDC",
"j  c #1738C7",
"k  c #1027CD",
"l  c #292ADC",
"z  c #3031DC",
"x  c #241BE0",
"c  c #332AE1",
"v  c #423BE1",
"b  c #1849C2",
"n  c #1C50C0",
"m  c #2A4ACB",
"M  c #2558C1",
"N  c #2B5AC5",
"B  c #2C55C9",
"V  c #2756C5",
"C  c #355DCB",
"Z  c #355ECA",
"A  c #3947D7",
"S  c #3B5CD3",
"D  c #3E4ECC",
"F  c #3C61CD",
"G  c #3A65C7",
"H  c #3F62D0",
"J  c #465BCC",
"K  c #4652D5",
"L  c #4B77CB",
"P  c #547ACA",
"I  c #4564D4",
"U  c #4C64DA",
"Y  c #4C67D6",
"T  c #536BDC",
"R  c #5469DA",
"E  c #4E65C9",
"W  c #666CC7",
"Q  c #6C76D1",
"!  c #514DE5",
"~  c #5B59E6",
"^  c #4C4DE3",
"/  c #625EEB",
"(  c #5C6DE2",
")  c #5766E3",
"_  c #5E71E1",
"`  c #6469E7",
"'  c #6472E5",
"]  c #6C74EC",
"[  c #6975E6",
"{  c #7275EC",
"}  c #757CEB",
"|  c #726AF3",
" . c #7B7AF3",
".. c #7676F3",
"X. c #6F67F2",
"o. c #817FB9",
"O. c #837DE9",
"+. c #827EF6",
"@. c #897FF8",
"#. c #5B9986",
"$. c #6E9987",
"%. c #65AC9D",
"&. c #5581BE",
"*. c #5998A9",
"=. c #6B87B2",
"-. c #5CA9B6",
";. c #67B1BF",
":. c #76CCB9",
">. c #6FD8B8",
",. c #77D7B9",
"<. c #70C3AC",
"1. c #7BE4BD",
"2. c #5787C6",
"3. c #5A96C5",
"4. c #4F89C4",
"5. c #6589C1",
"6. c #7397C8",
"7. c #688BD4",
"8. c #7589D8",
"9. c #7094CD",
"0. c #6EBCC8",
"q. c #73BDC2",
"w. c #64AAC2",
"e. c #7785E6",
"r. c #78D7C2",
"t. c #74CCC3",
"y. c #7DE8C1",
"u. c #9E9E9E",
"i. c #9C9E95",
"p. c #8E918C",
"a. c #A39C9B",
"s. c #8CB89F",
"d. c #A6A69F",
"f. c #9D9DA4",
"g. c #898AB1",
"h. c #88A9B0",
"j. c #94AAB0",
"k. c #A3A3A3",
"l. c #AAAAA5",
"z. c #ABABAB",
"x. c #A4A4AB",
"c. c #B3ACA8",
"v. c #B3B1AC",
"b. c #A1A7B8",
"n. c #ACB4B5",
"m. c #B3B3B3",
"M. c #BCBBB6",
"N. c #BBBBBB",
"B. c #B8B9B6",
"V. c #C1BDBB",
"C. c #89CCB9",
"Z. c #B4C2B8",
"A. c #AEC9B4",
"S. c #82ECB4",
"D. c #81E7B9",
"F. c #88F4B4",
"G. c #C4C3BC",
"H. c #CAC9BF",
"J. c #D2CFBF",
"K. c #8987C8",
"L. c #9798CB",
"P. c #8986DA",
"I. c #899CD6",
"U. c #9A9ED1",
"Y. c #8B95D1",
"T. c #8AA2C6",
"R. c #92ACD1",
"E. c #A7A7C8",
"W. c #BBBCC2",
"Q. c #A6A7DB",
"!. c #AAB4D5",
"~. c #B0B7CE",
"^. c #8A87E9",
"/. c #8C94E9",
"(. c #9998E7",
"). c #8481F6",
"_. c #8A85F8",
"`. c #928DF8",
"'. c #9A95F9",
"]. c #9A96F6",
"[. c #A39FF5",
"{. c #A19CF9",
"}. c #B1AFED",
"|. c #A6B6EA",
" X c #B6B6E6",
".X c #ADAAF9",
"XX c #A8A5F6",
"oX c #B2ADF6",
"OX c #B5B2FA",
"+X c #BCBAF9",
"@X c #B9B6F7",
"#X c #A7A8E7",
"$X c #93A9E1",
"%X c #C3BDC3",
"&X c #C0BCEC",
"*X c #C0BEF6",
"=X c #BAC3C8",
"-X c #BDC5D3",
";X c #B7C2D1",
":X c #A7DAD8",
">X c #9AEAD1",
",X c #B3DCEC",
"<X c #C3C3C3",
"1X c #C4C4CA",
"2X c #CBCBCB",
"3X c #C8C8C5",
"4X c #D1CECA",
"5X c #D2D1CE",
"6X c #D5D3CA",
"7X c #C8CAD4",
"8X c #CED2D7",
"9X c #D3D3D3",
"0X c #D9D7D4",
"qX c #DBDAD5",
"wX c #D4D4DA",
"eX c #DBDBDB",
"rX c #D4D8DD",
"tX c #E1DFDA",
"yX c #E0DCD6",
"uX c #E5E3DD",
"iX c #C6C8E2",
"pX c #D4D4E4",
"aX c #DEDEE3",
"sX c #D9D8EB",
"dX c #C4C2F4",
"fX c #CCCAF4",
"gX c #C5C3FA",
"hX c #CCCBF9",
"jX c #CBC7F5",
"kX c #D1CFF8",
"lX c #D5D4F4",
"zX c #DDDCF7",
"xX c #D4D2FB",
"cX c #DBDAF9",
"vX c #D6D8F9",
"bX c #C5DDE9",
"nX c #E1DEF9",
"mX c #C3F9E4",
"MX c #DAF2F3",
"NX c #E3E4E3",
"BX c #EBEAE5",
"VX c #E3E2EE",
"CX c #EBEBEB",
"ZX c #E7E9E1",
"AX c #F7F6EE",
"SX c #E3E3F2",
"DX c #E4E4FA",
"FX c #ECECFA",
"GX c #EBEBF2",
"HX c #EDF4FA",
"JX c #F4F4F2",
"KX c #FDFCF5",
"LX c #FEFEFE",
"PX c #F5F7FB",
"IX c #F3EFF2",
"UX c None",
/* pixels */
"UXUXUXUXUXUXUXUXUXUXUXUXUXUXUXUXUXUXUXUXUXUXUXUXUXUXUXUXUXUXUXUXUXUXUXUXUXUXUXUXUXUXUXUXUXUXUXUXUXUXUXUXUXUXUXUXUXUXUXUXUXUXUX",
"UXUXUXUXUXUXUXUXUXUXUXUXUXUXUXUXUXUXUXUXUXUXUXUXUXUXUXu.u.u.k.u.u.u.u.u.UXUXUXUXUXUXUXUXUXUXUXUXUXUXUXUXUXUXUXUXUXUXUXUXUXUXUX",
"UXUXUXUXUXUXUXUXUXUXUXUXUXUXUXUXUXUXUXUXUXUXUXu.k.k.k.k.k.u.k.k.k.k.k.k.u.k.k.k.UXUXUXUXUXUXUXUXUXUXUXUXUXUXUXUXUXUXUXUXUXUXUX",
"UXUXUXUXUXUXUXUXUXUXUXUXUXUXUXUXUXUXUXUXu.k.k.k.k.k.k.k.x.l.x.x.l.x.k.l.k.k.k.u.k.u.k.UXUXUXUXUXUXUXUXUXUXUXUXUXUXUXUXUXUXUXUX",
"UXUXUXUXUXUXUXUXUXUXUXUXUXUXUXUXUXUXu.k.k.k.x.l.k.l.z.z.z.z.z.z.z.z.z.z.l.z.l.x.k.k.k.u.u.UXUXUXUXUXUXUXUXUXUXUXUXUXUXUXUXUXUX",
"UXUXUXUXUXUXUXUXUXUXUXUXUXUXUXUXu.k.k.k.x.l.l.z.z.z.n.z.z.m.m.m.m.n.m.z.n.z.z.c.v.l.k.k.k.u.k.UXUXUXUXUXUXUXUXUXUXUXUXUXUXUXUX",
"UXUXUXUXUXUXUXUXUXUXUXUXUXUXu.k.k.k.l.z.z.z.z.z.m.m.m.m.m.m.m.m.m.m.m.m.m.v.x.x.l.z.z.z.l.k.k.a.u.UXUXUXUXUXUXUXUXUXUXUXUXUXUX",
"UXUXUXUXUXUXUXUXUXUXUXUXUXu.u.k.x.l.z.z.z.m.m.m.B.B.B.B.B.N.N.m.B.B.B.B.B.n.j.=.d g.f.z.l.x.k.k.u.u.UXUXUXUXUXUXUXUXUXUXUXUXUX",
"UXUXUXUXUXUXUXUXUXUXUXUXk.k.k.l.z.z.z.m.m.m.B.N.N.N.N.N.N.N.%XN.N.N.N.N.V.B.q.*.t i d g.f.z.z.x.k.u.u.UXUXUXUXUXUXUXUXUXUXUXUX",
"UXUXUXUXUXUXUXUXUXUXUXk.k.k.x.z.z.n.B.m.B.B.N.N.N.G.W.<X<X<X<X=X<X<X%X<XV.=XC.%.s t y d b.m.z.z.k.k.k.u.UXUXUXUXUXUXUXUXUXUXUX",
"UXUXUXUXUXUXUXUXUXUXk.k.x.l.z.v.m.m.B.N.N.N.<X<X<X<X<X<X<X3X3X3X3X3X<X<X3X<XC.*.u t i L.-XN.c.z.z.l.k.k.u.UXUXUXUXUXUXUXUXUXUX",
"UXUXUXUXUXUXUXUXUXk.k.k.z.z.n.m.m.B.N.N.%XW.<X<X3X1X2X2X3X2X2X4X2X2X3X5X5X<Xj.u t f E.sXpXN.n.n.z.z.l.k.k.u.UXUXUXUXUXUXUXUXUX",
"UXUXUXUXUXUXUXUXk.k.x.z.z.z.B.B.N.N.%X<X<X3X1X3X2X2X2X8X2X2X8X5X8X0X0X4X%Xb.f d K. XDXDXsXW.B.m.m.z.z.z.k.k.u.UXUXUXUXUXUXUXUX",
"UXUXUXUXUXUXUXu.k.x.l.z.m.m.B.B.V.Z.<X<X1X1X4X7X5X5X9X8X0XqXeXqX0X9X3XW.L.f K.#XdXcXDXnXpX<XB.B.m.m.z.z.k.k.u.u.UXUXUXUXUXUXUX",
"UXUXUXUXUXUXu.k.k.l.z.m.m.B.N.N.=XG.1X3X2X4X4X5X0X0XqXeXtXtXyX0X1XE.L.L.P.(.}.gXxXxXcXzXpX3XN.N.B.m.m.z.z.x.k.u.u.UXUXUXUXUXUX",
"UXUXUXUXUXUXk.k.x.l.z.m.B.N.N.W.<X3X2X2X2X9X0XqXqXtXuXuX0X1XE.L.Y.P.P.^.XXOXOX*XjXkXcXzXsX1X%XN.N.B.B.z.z.l.k.k.u.UXUXUXUXUXUX",
"UXUXUXUXUXu.k.k.z.z.m.m.N.N.W.<X1X2X2X5X8X0XtXuXuX0X1X!.L.K.Q [ ..).`.'.XX.XOX@XdXhXvXcXsX2XG.=XW.N.B.m.z.z.l.k.k.u.UXUXUXUXUX",
"UXUXUXUXUXk.k.l.z.m.B.B.N.W.1X3X2X2X5XqXuXuX8X7X!.U.8.W R ( ` .. .).`.'.[.XX.X@X+XjXxXcXsX5X3X<XW.N.N.B.B.z.z.x.k.u.UXUXUXUXUX",
"UXUXUXUXu.k.l.z.z.m.N.N.=X<X<X3X2X0XyX0X-X~.I.P E I I U ) ( ] .. .)._.].].XX.X@X+XgXkXlXpX5X2X1X<XN.N.B.m.z.z.x.k.u.u.UXUXUXUX",
"UXUXUXUXu.x.z.z.v.m.N.N.G.<X3X4X5X0X-XT.P G N Z B C I T _ ' [ {  .+._.`.].[.XX.X@XgXfXpXwX5X2X2X<X<XW.B.B.m.n.l.k.k.u.UXUXUXUX",
"UXUXUXu.k.x.z.z.m.B.N.N.<X1X4X5X5XT.a q e 8 n B Z F I Y T _ ] { .. .+._.`.].[..X@XfXpXeX0X9X2X2X3X3X<XN.N.m.m.z.l.k.u.u.UXUXUX",
"UXUXUXu.k.l.z.m.m.B.W.%X3X3X5XyX=XP 5 2 8 w M N C F I Y T ( ( ` ] .. .+.`.]..X&XlXaXuXeXeX0X9X4X2X3X<XW.N.B.m.z.l.k.k.u.UXUXUX",
"UXUXUXk.x.z.z.B.B.N.%X<X1X2X9XyX-Xa 5 5 0 w q N C Z I I U ) ) ( `  .`.XX@XfXlXVXCXBXNXuXeXeX9X4X7X1X<X<XN.B.m.z.z.x.k.u.UXUXUX",
"UXUXu.k.l.z.z.m.B.N.<X<X2X4X0XtX-X&.6 5 8 0 q M N C S S U _ e./.XX+XxXDXPXKXKXJXCXCXNXNXaXeXwX9X4X2X3X<XN.N.m.m.z.l.k.u.u.UXUX",
"UXUXk.k.x.z.m.m.N.V.<X3X2X2X0XtX8X5.6 5 8 8 q r V m Z L 7.|.vXHXLXLXLXLXLXLXKXJXJXCXCXNXNXeXrX0X5X2X1X<XN.N.B.n.z.z.x.u.u.UXUX",
"UXUXu.k.z.z.m.m.N.W.<X2X2X5X0XtX8X3.5 5 e e 0 q m G 4.q.:XmXHXLXLXLXLXLXLXLXPXJXJXCXCXNXNXaXeX0X9X5X2X<X<XN.B.m.z.z.k.k.u.UXUX",
"UXUXk.k.z.z.m.m.N.<X<X1X5X8XeXuXwX5.6 7 6 9 j D L w.t.y.D.s.a.c.8XPXLXLXLXLXLXLXJXJXCXBXNXtXeXeX9X2X2X1X%XN.B.m.m.z.x.k.u.UXUX",
"UXu.k.x.z.m.m.B.N.<X<X2X2X9XqXuXrX6.6 2 3 j G 3.:.D.D.<.+ % % o > a.aXLXLXLXLXLXLXJXCXBXNXNXeXrX9X5X4X3X<XN.N.m.m.z.l.k.u.u.UX",
"UXu.k.l.l.n.m.N.N.<X3X2X9X9XqXuXeX6.6 4 m R q.D.D.y.,., $ # * # @ o p.:X,XgXnXLXLXKXAXIXNXNXtXwX9X5X7X3X<X%XN.B.m.z.l.k.u.u.UX",
"UXu.k.x.l.m.m.B.N.<X1X2X5X9XeXNXZX6.k k R :.F.S.1.y.p.& * - : = # . O %.0./.^.].*XSXAXAXCXNXaXeXwX5X5X1X<XV.N.m.m.z.z.k.u.u.UX",
"UXu.k.l.z.m.m.N.N.<X3X2X5X9XeXuXZX X~ c I q.1.S.y.,.+ $ - ; ; : * @ X #.>.t.4.A ^ } }.aXCXZXaXeXwX5X2X2X3X=XN.m.m.z.l.x.u.u.UX",
"UXk.k.k.z.m.m.B.N.<X1X4X5X8XrXtXZXNX X^.' 5.:.>.1.>., $ - ; ; : = @ X #.1.1.:.3.A c v } iXZXuXeX0X9X4X1X<XW.N.B.m.z.l.k.u.u.UX",
"UXk.a.l.z.z.m.B.N.<X3X2X9X0XeXeXNXBXCXVXfX|.$XR.r.r.1 % # = : = $   O %.1.1.F.F.3.l g v (.aXNXyX0X8X2X2X<XW.N.B.z.z.l.k.u.u.UX",
"UXu.k.x.z.n.m.N.N.<X1X2X4X8XwXeXtXZXIXKXKXHXzXvXbXmXC.> @ # # # @ o 1 ,.1.1.F.S.2.l x ~ }.NXuXeXwX5X2X3X<XN.N.B.m.z.l.k.u.u.UX",
"UXu.k.x.z.m.m.B.N.<X3X2X2X8X0XeXaXNXNXCXJXKXLXLXPXPXMX3X< %   . X + <.1.D.D.,.3.A l ` @XSXBXtX0X8X5X2X3X<XW.N.B.m.z.z.k.u.u.UX",
"UXu.k.x.z.z.m.B.N.<X<X2X5X5X0XeXaXNXCXCXIXKXKXLXLXLXLXLXBXc.i.1 #.<.1.y.,.;.P A ! O.dXFXIXaXeXwX9X5X5X1X<XN.B.m.m.l.x.x.u.u.UX",
"UXUXk.k.z.z.m.B.N.W.<X3X4X8X9XeXtXNXNXCXCXJXJXLXLXLXLXLXLXLXPXMXmX>Xt.w.2.U ! X.[.zXHXIXVXaXeX0X9X2X2X3X%XN.B.m.m.z.k.k.u.UXUX",
"UXUXk.k.l.z.m.m.N.N.<X3X4X8X8XeXaXuXNXNXCXIXJXPXLXPXLXLXLXLXLXLXDX|.7.K ! X.`.@XvXFXFXDXSXaXeX0X8X2X3X<X<XN.m.m.z.z.k.u.u.UXUX",
"UXUXu.k.l.z.z.m.N.N.<X3X2X2X9XwXeXaXNXNXBXGXJXIXKXLXLXLXLXPXzXoX^./ / X.@.{.@XjXkXlXzXSXVXeX0X8X5X2X3X<XN.N.B.m.z.l.k.k.u.UXUX",
"UXUXu.k.x.z.m.m.B.N.=X<X3X3X9X0XqXaXNXNXBXCXJXKXKXLXLXHXkX(.{ ` ) / | _.{.XXoX@XgXvXzXDXVXaX9X9X4X1X1X<XN.N.m.m.z.z.k.u.u.UXUX",
"UXUXUXk.k.l.z.m.B.B.W.<X3X1X2X8XwXeXtXNXCXCXAXAXHXsX|./.[ ) ^ ) ]  .)._.`.{.XXOXdXkXcXDXSXeX8X5X5X1X<XV.N.N.m.m.z.x.k.u.UXUXUX",
"UXUXUXk.k.l.z.z.m.B.N.<X3X3X3X8X8XqXuXBXBXNXiX!.$X8.R S K U _ ' ] .. .)._.'.{.OX+XhXvXnXaXwX5X2X3X<X<XW.N.m.m.z.l.k.u.u.UXUXUX",
"UXUXUXu.k.x.z.z.m.B.N.W.<X<X2X4X0XqXqX-XR.9.2.H B B C H U T _ ' ] }  . .).'.[..X@XgXxXsXrX9X2X2X1X<X%XN.B.n.z.z.l.k.u.u.UXUXUX",
"UXUXUXUXu.k.z.z.z.m.B.N.W.<X3X2X2X;XT.a r 0 0 r n N S I Y T ( _ ' ]  . .@.`.'.{.OXdXpXrX0X5X7X3X<X<XN.B.m.m.z.l.x.k.u.UXUXUXUX",
"UXUXUXUXu.k.k.l.z.m.B.N.N.V.3X4XW.5.e 5 9 9 0 M N C F H Y R T _ ' ] ] .. ._.].oXdX8XwX9X5X2X3X<XG.N.N.B.m.z.z.l.k.u.u.UXUXUXUX",
"UXUXUXUXUXk.k.x.z.m.m.B.N.N.3X4X~.p 2 5 e w q M N C C H I U U ) ) ' ] ..).'.}.iX8X0X9X5X5X1X<X<X=XB.N.B.m.z.z.x.k.u.UXUXUXUXUX",
"UXUXUXUXUXu.k.k.l.z.z.m.N.N.<X4Xb.p 5 5 8 0 w M M N C C S I ) ) ( e./.#X XiX8X0X0X9X2X4X3X3X<XG.N.B.m.m.z.z.k.k.u.u.UXUXUXUXUX",
"UXUXUXUXUXUXu.k.x.z.z.m.B.B.Z.<Xn.p 5 7 8 8 w q M V N C S T 8.I.#X XiX8XtXyXqX9X9X4X2X1X<X<X=XN.B.B.m.z.z.l.k.u.u.UXUXUXUXUXUX",
"UXUXUXUXUXUXUXk.k.k.z.z.m.m.N.G.b.p 6 5 6 8 e q n b m Y 8.!.;X8XqXqXqXqX0X9X9X2X4X1X3X<X<X%XN.N.B.m.z.z.l.x.k.u.UXUXUXUXUXUXUX",
"UXUXUXUXUXUXUXu.k.k.z.z.n.m.M.V.n.p 6 5 6 e 8 j m J Q U.1XqXqX0XqXqX5X5X5X2X4X2X1X3X<X<XN.W.B.m.m.z.z.z.k.k.u.u.UXUXUXUXUXUXUX",
"UXUXUXUXUXUXUXUXu.k.k.l.z.z.m.V.b.s 5 7 6 3 j D Q U.=X6X5X9X5X9X4X2X5X2X1X3X<X<X<X<XN.N.N.B.m.m.m.z.z.x.k.u.u.UXUXUXUXUXUXUXUX",
"UXUXUXUXUXUXUXUXUXu.k.k.z.c.v.v.j.p 6 3 4 j E L.%X2XJ.4X2X3X3X3X3X3X1X3X1X3X<X<X<XW.N.N.B.B.m.n.z.l.k.k.u.u.UXUXUXUXUXUXUXUXUX",
"UXUXUXUXUXUXUXUXUXUXu.k.x.l.z.m.x.p 3 4 k S j.H.J.G.<X<X<X<X<X<X1X<X<X<X%X<XN.N.N.N.B.B.m.m.z.z.z.x.k.k.u.UXUXUXUXUXUXUXUXUXUX",
"UXUXUXUXUXUXUXUXUXUXUXu.a.k.l.v.f.E k g l 5.A.G.V.Z.V.%X<XW.<XW.=XG.<XZ.N.W.N.N.B.B.B.z.m.z.z.l.k.k.u.u.UXUXUXUXUXUXUXUXUXUXUX",
"UXUXUXUXUXUXUXUXUXUXUXUXa.k.d.l.k.f K h l 5.A.M.N.N.N.N.N.N.N.N.B.N.N.N.B.B.B.m.B.m.z.z.z.l.k.k.k.u.u.UXUXUXUXUXUXUXUXUXUXUXUX",
"UXUXUXUXUXUXUXUXUXUXUXUXUXu.u.k.c.k.g.W E g.n.B.m.m.m.m.B.B.B.m.B.B.B.m.m.m.m.m.n.z.z.z.l.x.k.k.u.u.UXUXUXUXUXUXUXUXUXUXUXUXUX",
"UXUXUXUXUXUXUXUXUXUXUXUXUXUXUXu.u.k.l.l.l.l.z.z.z.z.n.m.m.B.m.m.m.m.m.m.z.z.z.m.z.z.l.k.k.k.u.u.UXUXUXUXUXUXUXUXUXUXUXUXUXUXUX",
"UXUXUXUXUXUXUXUXUXUXUXUXUXUXUXUXu.k.d.l.c.l.l.l.z.z.z.z.z.z.z.z.z.z.z.z.z.z.z.x.k.k.k.k.u.u.u.UXUXUXUXUXUXUXUXUXUXUXUXUXUXUXUX",
"UXUXUXUXUXUXUXUXUXUXUXUXUXUXUXUXUXUXu.u.u.k.k.k.l.x.x.l.l.z.l.z.z.l.x.l.k.x.d.k.k.k.k.u.u.UXUXUXUXUXUXUXUXUXUXUXUXUXUXUXUXUXUX",
"UXUXUXUXUXUXUXUXUXUXUXUXUXUXUXUXUXUXUXUXUXu.u.k.k.k.k.k.k.x.k.k.x.x.d.x.k.k.k.k.u.u.UXUXUXUXUXUXUXUXUXUXUXUXUXUXUXUXUXUXUXUXUX",
"UXUXUXUXUXUXUXUXUXUXUXUXUXUXUXUXUXUXUXUXUXUXUXk.k.u.u.k.k.u.u.k.u.u.k.u.u.k.k.k.UXUXUXUXUXUXUXUXUXUXUXUXUXUXUXUXUXUXUXUXUXUXUX",
"UXUXUXUXUXUXUXUXUXUXUXUXUXUXUXUXUXUXUXUXUXUXUXUXUXUXUXUXu.u.u.u.u.u.u.UXUXUXUXUXUXUXUXUXUXUXUXUXUXUXUXUXUXUXUXUXUXUXUXUXUXUXUX",
"UXUXUXUXUXUXUXUXUXUXUXUXUXUXUXUXUXUXUXUXUXUXUXUXUXUXUXUXUXUXUXUXUXUXUXUXUXUXUXUXUXUXUXUXUXUXUXUXUXUXUXUXUXUXUXUXUXUXUXUXUXUXUX",
"UXUXUXUXUXUXUXUXUXUXUXUXUXUXUXUXUXUXUXUXUXUXUXUXUXUXUXUXUXUXUXUXUXUXUXUXUXUXUXUXUXUXUXUXUXUXUXUXUXUXUXUXUXUXUXUXUXUXUXUXUXUXUX"
};
