/* XPM */
static char *xdvik[] = {
/* columns rows colors chars-per-pixel */
"48 48 35 1 ",
"  c #080808",
". c #2F261C",
"X c #343434",
"o c #3C3B3C",
"O c #493415",
"+ c #523611",
"@ c #64471A",
"# c #6D4E1E",
"$ c #65513A",
"% c #444444",
"& c #4C4C4C",
"* c #505050",
"= c #665641",
"- c #696159",
"; c #626262",
": c #7D7D7D",
"> c #946924",
", c #8D7757",
"< c #8F7C5A",
"1 c #B78833",
"2 c #D59E39",
"3 c #D7A03A",
"4 c #9F896C",
"5 c #E9B345",
"6 c #EBB345",
"7 c #FDC54E",
"8 c #808080",
"9 c #848484",
"0 c #9C9C9B",
"q c #A9A5A2",
"w c #C7BFB5",
"e c #DAD6D1",
"r c #EFEEEE",
"t c #FEFEFE",
"y c None",
/* pixels */
"9           XyyyyyyyyyyyyyyyyyyyyyyyyyyyyyX  Xyy",
"y8            yyyyyyyyyyyyyyyyyyyyyyyyyyy   oyyy",
"yyo           XyyyyyyyyyyyyyyyyyyyyyyyyyX   yyyy",
"yyyX           :yyyyy     yy  yyy  yyyy*   yyyyy",
"yyyy            yyyy >777 y 77 y 77 y+9   9yyyyy",
"yyyyy           Xyyy 77.#7 777 y 77      =yyyyyy",
"yyyyy8           *yyy 6#.77 777 77 7 77 7 y  yyy",
"yyyyyyX           yyyy 6>#7 77 77 77 7 6   66 yy",
"yyyyyyy            yyy4 77777777 77 777+66 66 yy",
"yyyyyyyy           Xyy++++177777777 777+7 66 6 y",
"yyyyyyyyX           ;+qtte+73777777771+7    76 y",
"yyyyyyyyy           +qtttt+4+++17777771 166>  yy",
"yyyyyyyyyy          +t4.tw+wtte+177771 77777 +yy",
"yyyyyyyyyyy     .++#+t..4+etttte+7773 77>+>7 7 y",
"yyyyyyyyyy>+O@137776+ew++etttttt+777 71#  37 6 y",
"yyyyyyyy>>77777777771+++,ttteetw+77777   17 66 y",
"yyyyyyy>777777777777773>-tte..r+37773 +177 1  >y",
"yyyyyy>77>>3777777777773+ete..-+777777777 1666+y",
"yyyyy> 7>7777777777777771+etee+777777    17 676+",
"yyyyy76 777>37777777777773++++77777777777777   y",
"yyyyy1>++7>7777 >3777777777777777777777    777 -",
"yyyyy66# #777  377777777777777777777777777  777 ",
"yyyyy666    #77777777777777777777777  77777 7  y",
"yyyyyy6>+> 66  7777777777777777777777   7777 yyy",
"yyyyyy 6>77  66 17777777777777777777777   777 yy",
"yyyyyy7. 7777 1777777777777+77777777777777  7  y",
"yyyyyy377 7777777777777777+ 77777   77777777 7#y",
"yyyyyyy177 77777777777777+ 77777777   7777777  -",
"yyyyyyyy777 +37777777777+ 777777 7777   777777 y",
"yyyyyyyy1777#  >777777+ +7777777+ 777777    7 yy",
"yyyyyyyyy177777        77777+77777   777777  7yy",
"yyyyyyyyyyy177777777777777777 777777  777777  +y",
"yyyyyyyyyyyyy<37777777777777 +7777 77   777777 y",
"yyyyyyyyyyyyy9  37737777        77 7777 77+77 $y",
"yyyyyyyyyyyy9   X#7#7+7+yyX    6+77 777 777+7 yy",
"yyyyyyyyyyyyX   0,#+#2+yyyyX    6+7 777 777+7 yy",
"yyyyyyyyyyy;   9yyyyyyyyyyyy     777  77 777+7 y",
"yyyyyyyyyy9   8yyyyyyyyyyyyyy      77    777+ yy",
"yyyyyyyyyy   %yyyyyyyyyyyyyyy8               yyy",
"yyyyyyyyyX   9yyyyyyyyyyyyyyyyX          +yyyyyy",
"yyyyyyyy&   yyyyyyyyyyyyyyyyyyy           *yyyyy",
"yyyyyyy9   8yyyyyyyyyyyyyyyyyyyy           9yyyy",
"yyyyyyy   8yyyyyyyyyyyyyyyyyyyyyX           yyyy",
"yyyyyy   %yyyyyyyyyyyyyyyyyyyyyyy           Xyyy",
"yyyyyX   9yyyyyyyyyyyyyyyyyyyyyyyy           ;yy",
"yyyy&   9yyyyyyyyyyyyyyyyyyyyyyyyyy           8y",
"yyy8   8yyyyyyyyyyyyyyyyyyyyyyyyyyy           *y",
"yyyyyyyyyyyyyyyyyyyyyyyyyyyyyyyyyyyy           9"
};
