/* XPM */
static char * timidity_xpm[] = {
"32 32 21 1",
" 	c None",
".	c #333399",
"+	c #000000",
"@	c #666699",
"#	c #FFFFFF",
"$	c #DDDDDD",
"%	c #888888",
"&	c #999999",
"*	c #7777A4",
"=	c #4949A4",
"-	c #BBBBBB",
";	c #111111",
">	c #444444",
",	c #2B2B2B",
"'	c #555555",
")	c #FF9999",
"!	c #FF9966",
"~	c #666666",
"{	c #333333",
"]	c #FF0000",
"^	c #00FF00",
"      .   ..                    ",
"      .  ...     +              ",
"      .  ..@    +#+  +          ",
"      .@@..    +#$#+%#+         ",
"      ....@   +#$#$#+$#+        ",
"      ....   +#$#$#$#+$#+       ",
"     @...@  +#$#$#$#$#+$#+      ",
"    @....  +#$#$#$#$#$#+$#+     ",
"   @...@. %#$#$#$#$#$#$#&$#&    ",
"  @...@ +++++++$#++$+++++&$++   ",
"  ...@  ++$++#++$++#++$$++$++$  ",
" @..@  %++#++$++#++$++$&++$++   ",
" ...  %#++$++#++$++#++&$++#++   ",
"*..@  .&++#++$++#++$++++++&++   ",
"=..  ...&#$#$#$#$#$#&-$#$&      ",
"=..  ...+++++$++#+$+++++++ ++   ",
"=..  ..  .&#$#$#$$&-$#&&        ",
"=..  ..  . +&$#$&+-$#&+         ",
" ;;;;;;;;;;;;;;;;;;;>;;;;;;;    ",
",#%%%%%%%%%%%%%%%%%';#%%%%%'+   ",
",%+++++++++++++++''>;%'''''>+   ",
",%+#)))))))))))!;''>;%'%~+'>+   ",
",'+);;!;!!;!!!!!;>>>;'>+++>>+   ",
",'+)>!!;!!;!;!;!;>>>;'>>>>>>+   ",
",'+!!!!!!!!!!!!!;>>{;'>%~+>>+   ",
",'+;;;;;;;;;;;;;'>>{;'>+++>>+   ",
",'>>>>>>>>>>>>>>>>>{;'>>>>>>+>  ",
",'%~'>>%~'>>'>'>'>>{;'>%~+>{++> ",
",']++>>^++>>+>+>+>>{;'>+++>{++>>",
",'>>>>>>>>>>>>>>{{{';'>>{{{'+>>~",
" +++++++++++++++++++>+++++++>>~ ",
"                                "};
