/* XPM */
static char * mirrormagic_xpm[] = {
"32 32 257 2",
"  	c None",
". 	c #000000",
"+ 	c #999999",
"@ 	c #77AAFF",
"# 	c #4C2208",
"$ 	c #6E4C08",
"% 	c #7F7F7F",
"& 	c #AACCFF",
"* 	c #777777",
"= 	c #BB6622",
"- 	c #0000CC",
"; 	c #994411",
"> 	c #00FF00",
", 	c #EECC11",
"' 	c #5D5D5D",
") 	c #447F44",
"! 	c #555555",
"~ 	c #0000AA",
"{ 	c #3B3B3B",
"] 	c #009900",
"^ 	c #990000",
"/ 	c #007F00",
"( 	c #005500",
"_ 	c #CCCCCC",
": 	c #CC0000",
"< 	c #7F0000",
"[ 	c #19447F",
"} 	c #AAAAAA",
"| 	c #FF0000",
"1 	c #331900",
"2 	c #888888",
"3 	c #000055",
"4 	c #663300",
"5 	c #6E6E6E",
"6 	c #666666",
"7 	c #DD9911",
"8 	c #5D3311",
"9 	c #00337F",
"0 	c #FFFFFF",
"a 	c #00CC00",
"b 	c #4C4C4C",
"c 	c #FFFF00",
"d 	c #444444",
"e 	c #00AA00",
"f 	c #7F7F00",
"g 	c #DDDDDD",
"h 	c #0066FF",
"i 	c #006600",
"j 	c #004C00",
"k 	c #776608",
"l 	c #3388FF",
"m 	c #BBBBBB",
"n 	c #0000FF",
"o 	c #000000",
"p 	c #000000",
"q 	c #000000",
"r 	c #000000",
"s 	c #000000",
"t 	c #000000",
"u 	c #000000",
"v 	c #000000",
"w 	c #000000",
"x 	c #000000",
"y 	c #000000",
"z 	c #000000",
"A 	c #000000",
"B 	c #000000",
"C 	c #000000",
"D 	c #000000",
"E 	c #000000",
"F 	c #000000",
"G 	c #000000",
"H 	c #000000",
"I 	c #000000",
"J 	c #000000",
"K 	c #000000",
"L 	c #000000",
"M 	c #000000",
"N 	c #000000",
"O 	c #000000",
"P 	c #000000",
"Q 	c #000000",
"R 	c #000000",
"S 	c #000000",
"T 	c #000000",
"U 	c #000000",
"V 	c #000000",
"W 	c #000000",
"X 	c #000000",
"Y 	c #000000",
"Z 	c #000000",
"` 	c #000000",
" .	c #000000",
"..	c #000000",
"+.	c #000000",
"@.	c #000000",
"#.	c #000000",
"$.	c #000000",
"%.	c #000000",
"&.	c #000000",
"*.	c #000000",
"=.	c #000000",
"-.	c #000000",
";.	c #000000",
">.	c #000000",
",.	c #000000",
"'.	c #000000",
").	c #000000",
"!.	c #000000",
"~.	c #000000",
"{.	c #000000",
"].	c #000000",
"^.	c #000000",
"/.	c #000000",
"(.	c #000000",
"_.	c #000000",
":.	c #000000",
"<.	c #000000",
"[.	c #000000",
"}.	c #000000",
"|.	c #000000",
"1.	c #000000",
"2.	c #000000",
"3.	c #000000",
"4.	c #000000",
"5.	c #000000",
"6.	c #000000",
"7.	c #000000",
"8.	c #000000",
"9.	c #000000",
"0.	c #000000",
"a.	c #000000",
"b.	c #000000",
"c.	c #000000",
"d.	c #000000",
"e.	c #000000",
"f.	c #000000",
"g.	c #000000",
"h.	c #000000",
"i.	c #000000",
"j.	c #000000",
"k.	c #000000",
"l.	c #000000",
"m.	c #000000",
"n.	c #000000",
"o.	c #000000",
"p.	c #000000",
"q.	c #000000",
"r.	c #000000",
"s.	c #000000",
"t.	c #000000",
"u.	c #000000",
"v.	c #000000",
"w.	c #000000",
"x.	c #000000",
"y.	c #000000",
"z.	c #000000",
"A.	c #000000",
"B.	c #000000",
"C.	c #000000",
"D.	c #000000",
"E.	c #000000",
"F.	c #000000",
"G.	c #000000",
"H.	c #000000",
"I.	c #000000",
"J.	c #000000",
"K.	c #000000",
"L.	c #000000",
"M.	c #000000",
"N.	c #000000",
"O.	c #000000",
"P.	c #000000",
"Q.	c #000000",
"R.	c #000000",
"S.	c #000000",
"T.	c #000000",
"U.	c #000000",
"V.	c #000000",
"W.	c #000000",
"X.	c #000000",
"Y.	c #000000",
"Z.	c #000000",
"`.	c #000000",
" +	c #000000",
".+	c #000000",
"++	c #000000",
"@+	c #000000",
"#+	c #000000",
"$+	c #000000",
"%+	c #000000",
"&+	c #000000",
"*+	c #000000",
"=+	c #000000",
"-+	c #000000",
";+	c #000000",
">+	c #000000",
",+	c #000000",
"'+	c #000000",
")+	c #000000",
"!+	c #000000",
"~+	c #000000",
"{+	c #000000",
"]+	c #000000",
"^+	c #000000",
"/+	c #000000",
"(+	c #000000",
"_+	c #000000",
":+	c #000000",
"<+	c #000000",
"[+	c #000000",
"}+	c #000000",
"|+	c #000000",
"1+	c #000000",
"2+	c #000000",
"3+	c #000000",
"4+	c #000000",
"5+	c #000000",
"6+	c #000000",
"7+	c #000000",
"8+	c #000000",
"9+	c #000000",
"0+	c #000000",
"a+	c #000000",
"b+	c #000000",
"c+	c #000000",
"d+	c #000000",
"e+	c #000000",
"f+	c #000000",
"g+	c #000000",
"h+	c #000000",
"i+	c #000000",
"j+	c #000000",
"k+	c #000000",
"l+	c #000000",
"m+	c #000000",
"n+	c #000000",
"o+	c #000000",
"p+	c #000000",
"q+	c #000000",
"r+	c #000000",
"s+	c #000000",
"t+	c #000000",
"u+	c #000000",
"v+	c #000000",
"w+	c #000000",
"x+	c #000000",
"y+	c #000000",
"z+	c #000000",
"A+	c #000000",
"B+	c #000000",
"C+	c #000000",
"D+	c #000000",
"E+	c #000000",
"F+	c #000000",
"G+	c #000000",
"H+	c #000000",
"                                                                ",
"                            - n n l h h : n - ~                 ",
"                          n - - l l h n n n n -                 ",
"        , 7             l l h h n : n n n n ~ ~ 7 ,             ",
"        c 7 =         h l h h n n n n n - - ~ = 7 c             ",
"        c , 7 , 7 ~ h h h n n n - - ~ ~ ~ 7 , 7 , c             ",
"        , , 7 7 = ~ h h n n - - ~ ~ ~ ~ ~ = 7 7 , ,             ",
"          , 7 = - ~ l _ } b 4 4 b b b ~ ~ - = 7 ,               ",
"        ~ ~ 4 4 4 ~ m g 1 1 = = 1 1 d d h ~ 4 4 ~ ~             ",
"    ~ ~ ~ ~ 4 4 4 l g g 7 7 , 7 ; ; d { @ h 4 4 4 ~ ~ ~         ",
"    ~ ~ ~ ~ h h l l 0 g 7 7 , 7 ; ; d { @ @ h n 4 ~ ~ ~ n       ",
"    @ @ @ @ @ @ l l 0 g } 7 , , ; d d { @ l h h n n n - -       ",
"      @ @ | @ @ l 0 2 0 g } = = d d d { @ l h n n n n - -       ",
"        @ @ & & @ @ l g + _ 2 2 6 6 ! @ @ l h n ^ n - -         ",
"          @ & & @ @ l l } 2 _ _ 2 2 @ @ h h n n n n - -         ",
"            @ @ @ | l l + _ _ } _ l @ h h h n n n - -           ",
"            @ @ @ @ l l + _ _ _ } _ @ h h n n n n - -           ",
"              @ @ @ l l h } _ _ } } h h h n n n - -             ",
"              @ @ @ l l h h _ _ } } } h n ^ n - - -             ",
"                @ n h h h h } _ _ } 2 2 n n - - -               ",
"                @ n n h h h } _ _ _ 2 ~ n n ~ - -               ",
"                n n n n | h ~ } } } ~ ~ - ~ ~ ~ -               ",
"              h n n n h h h - ~ } } } - - ^ ~ ~ -               ",
"              h n n h h h n - n - - * * ~ ~ ~ -                 ",
"              h n h h h h n - n - - - - ~ ~ ~ - -               ",
"            h l h h h l h h n n : - - - ~ ~ ~ ~ ^ -             ",
"            h @ h | l l h n n n - - - ~ ~ ~ ~ ~ ~ -             ",
"          n l @ l l l l h n n - ~ - - ~ ~ ~ ^ ~ ~ ~ -           ",
"          n l @ l l l h n n - - ~ ~ - ~ ~ ~ ~ ~ ~ ~ -           ",
"        n | h h h = ; ; 4 ~ - ~ ~ ~ - = ; ; 4 ~ ~ ~ ^ -         ",
"        n - h h = = ; ; 4 4 ~ ~ ~ ~ = = ; ; 4 4 ~ ~ ~ -         ",
"                                                                "};
