/* XPM */
static char *kq__[] = {
/* columns rows colors chars-per-pixel */
"32 32 10 1",
"  c #000000",
". c #800000",
"X c #808000",
"o c #000080",
"O c #0000FF",
"+ c #008080",
"@ c #00FFFF",
"# c #808080",
"$ c #C0C0C0",
"% c None",
/* pixels */
"%%$$%%%%%%%%%%%%%%%%%%%%%%%%%%%%",
"%%$$$%%%%%%%%%%%%%%%%%%%%%%%%$#%",
"%%%#$$$%%%%%%%%%%%%%%%%%%%%$$#$%",
"%%%%$$$#$%%%%%%%%%%%%%%%%$$$$%%%",
"%%%%%#$$$#$%%%%%%%%%%%%$$$$#$%%%",
"%%%%%%$$$$#$$%%%%%%%%%$$$$$%%%%%",
"%%%%%%%##$$##$$$$$$%$##$$#$%%%%%",
"%%%%%%%%$####$$$$$$######%%%%%%%",
"%%%%%%%%%##$%$$####$$###$%%%%%%%",
"%%%%%%%%%%$%$oOOOOO##$#%%%%%%%%%",
"%%%%%%%%%#$##OO+++OOo$#%%%%%%%%%",
"%%%%%%%%%%%oo++++++OO$$%%%%%%%%%",
"%%%%%%%%%$$OO++@@++OO$$%%%%%%%%%",
"%%%%%%%%%$$OO++@@++OO%$%%%%%%%%%",
"%%%%%%%%%#$ooO+++++Oo%%%%%%%%%%%",
"%%%%%%%%%##$#OOOOOOo#%$%%%%%%%%%",
"%%%%%%%%%##$$##ooo#%%#$%%%%%%%%%",
"%%%%%%%$$####$$$$$%%$$$$$%%%%%%%",
"%%%%%%%##$%%%###$$$#$$###%%%%%%%",
"%%%%%$#$$%%%%##$#$$#$%%$##$%%%%%",
"%%%%%$$%%%%%%###$###$%%%%##%%%%%",
"%%%%%%%%%%%%%##$$$##$%%%%%%%%%%%",
"%%%%%%%%%%%%%##$$$$ #%%%%%%%%%%%",
"%%%%%%%%%%%%%##$$$$ #%%%%%%%%%%%",
"%%%%%%%%%%%%%##$$$# #%%%%%%%%%%%",
"%%%%%%%%%%%%%$#XXXX$%%%%%%%%%%%%",
"%%%%%%%%%%%%%%$XXXX%%%%%%%%%%%%%",
"%%%%%%%%%%%%%%$XXXX%%%%%%%%%%%%%",
"%%%%%%%%%%%%%%$.XXX%%%%%%%%%%%%%",
"%%%%%%%%%%%%%%$.XXX%%%%%%%%%%%%%",
"%%%%%%%%%%%%%%$XXXX%%%%%%%%%%%%%",
"%%%%%%%%%%%%%%$XXXX%%%%%%%%%%%%%"
};
