/* XPM */
static char * git_annex_42x42_xpm[] = {
"42 40 4 1",
" 	c None",
".	c #40BF4C",
"+	c #D8382D",
"@	c #666666",
"   .                                  .   ",
"  ...                                ...  ",
"  ...                                ...  ",
" .....                              ..... ",
".......                            .......",
"  ...                                ...  ",
"  .                                    .  ",
"     .                              .     ",
"   ..                                ..   ",
"   .               ....               .   ",
"     ..            ....            ..     ",
"    ....           ....           ....    ",
"     .....         ....         .....     ",
"      .... . ................ . ....      ",
"       ..  . ................ .  ..       ",
"          .. ................ ..          ",
"                   ....                   ",
"                   ....                   ",
"                   ....                   ",
"                   ....                   ",
"                                          ",
"             ++++++++++++++++             ",
"             ++++++++++++++++             ",
"             ++++++++++++++++             ",
"             ++++++++++++++++             ",
"                                          ",
"                 @@  @@@@@@@@             ",
"               @@@@  @@@@@@@@             ",
"               @@@@  @@@@@@               ",
"              @@@@@  @@@@@@@              ",
"              @@@    @@  @@@              ",
"             @@@@    @@  @@@@             ",
"             @@@     @@   @@@             ",
"             @@@@         @@@             ",
"              @@@        @@@@             ",
"              @@@@       @@@              ",
"              @@@@@@  @@@@@@              ",
"               @@@@@@@@@@@@               ",
"                @@@@@@@@@@                ",
"                  @@@@@@                  "};
