/* XPM */
static char * zoom_videocam_xpm[] = {
"24 24 5 1",
" 	c None",
".	c #2D8CFF",
"+	c #469AFF",
"@	c #E3F0FF",
"#	c #FFFFFF",
"    ................    ",
"  ....................  ",
" ...................... ",
" ...................... ",
"........................",
"........................",
"...##############...+...",
"...##############..+@...",
"...##############.+@#...",
"...##############+@##...",
"...##############@###...",
"...##################...",
"...##################...",
"...##############@###...",
"...##############+@##...",
"...##############.+@#...",
"...##############..+@...",
"...##############...+...",
"........................",
"........................",
" ...................... ",
" ...................... ",
"  ....................  ",
"    ................    "};
