<?xml version="1.0" encoding="UTF-8" standalone="no"?>
<svg
   width="100%"
   height="100%"
   viewBox="187.5 225 125 150"
   version="1.1"
   xml:space="preserve"
   style="fill-rule:evenodd;clip-rule:evenodd;stroke-linejoin:round;stroke-miterlimit:1.41421"
   id="svg93"
   sodipodi:docname="gnome-control-center-gentoo-logo-dark.svg"
   inkscape:version="1.2.1 (9c6d41e410, 2022-07-14)"
   xmlns:inkscape="http://www.inkscape.org/namespaces/inkscape"
   xmlns:sodipodi="http://sodipodi.sourceforge.net/DTD/sodipodi-0.dtd"
   xmlns="http://www.w3.org/2000/svg"
   xmlns:svg="http://www.w3.org/2000/svg"><sodipodi:namedview
     id="namedview95"
     pagecolor="#ffffff"
     bordercolor="#000000"
     borderopacity="0.25"
     inkscape:showpageshadow="2"
     inkscape:pageopacity="0.0"
     inkscape:pagecheckerboard="0"
     inkscape:deskcolor="#d1d1d1"
     showgrid="false"
     inkscape:zoom="4.5793908"
     inkscape:cx="61.798613"
     inkscape:cy="115.08081"
     inkscape:window-width="1128"
     inkscape:window-height="683"
     inkscape:window-x="0"
     inkscape:window-y="0"
     inkscape:window-maximized="1"
     inkscape:current-layer="g30" /><g
     id="Ebene 1"
     transform="matrix(0.25,0,0,0.25,187.49986,222.98935)"><g
       id="g30"><path
         d="m 288.025,447.225 h 8.379 v 100.979 c -2.793,-0.059 -5.82,0.116 -8.467,-0.089 V 447.489 c -0.008,-0.125 -0.014,-0.249 0.088,-0.264"
         style="fill:#ffffff"
         id="path2" /><path
         d="m 309.103,447.225 h 9.26 v 10.671 h -9.348 c 0.059,-3.528 -0.117,-7.291 0.088,-10.671"
         style="fill:#ffffff"
         id="path4" /><path
         d="m 169.85,477.827 h 6.438 v 7.144 h -6.35 c -0.161,15.628 -0.087,33.086 -0.088,49.474 0,2.484 -0.141,4.96 0.706,6.351 0.891,1.465 3.48,1.74 5.732,1.588 v 7.407 c -5.558,0.356 -11.029,0.033 -13.052,-3.792 -1.837,-3.473 -1.764,-8.618 -1.764,-13.935 v -47.093 h -4.586 v -7.144 h 4.586 v -15.521 c 2.736,-1.116 5.731,-2.442 8.378,-3.352 z"
         style="fill:#ffffff"
         id="path6" /><path
         d="m 440.772,459.924 h 7.32 v 1.939 h -2.557 c -0.206,7.585 -0.03,15.551 -0.088,23.284 -0.713,-0.052 -1.636,0.107 -2.205,-0.088 v -23.196 h -2.558 c 0.058,-0.617 -0.116,-1.468 0.088,-1.939"
         style="fill:#ffffff"
         id="path8" /><path
         d="m 450.473,459.924 h 3.704 c 0.712,7.813 1.634,15.416 2.381,23.194 0.492,-1.796 0.589,-3.745 0.794,-5.644 0.626,-5.816 1.136,-11.767 1.764,-17.55 h 3.704 v 25.223 c -0.627,-0.049 -1.457,0.104 -1.94,-0.088 -0.059,-7.733 0.116,-15.699 -0.089,-23.283 -0.448,0.252 -0.315,0.939 -0.352,1.323 -0.693,7.184 -1.585,14.893 -2.382,22.048 h -2.998 c -0.897,-7.776 -1.568,-15.777 -2.646,-23.371 -0.409,7.422 -0.06,15.607 -0.176,23.371 h -1.852 c 0.059,-8.379 -0.118,-16.993 0.088,-25.223"
         style="fill:#ffffff"
         id="path10" /><path
         d="m 45.854,497.493 v 27.869 c 0,4.831 -0.156,9.944 1.587,12.347 1.29,1.777 4.721,2.487 6.791,1.322 2.867,-1.612 2.998,-7.071 2.998,-12.347 v -30.778 c 0,-5.015 0.097,-10.618 -3.175,-12.259 -0.896,-0.449 -2.685,-0.47 -3.527,-0.351 -5.18,0.727 -4.674,8.311 -4.674,14.197 M 57.23,482.059 c 0.272,-1.374 0.428,-2.864 0.706,-4.232 h 7.849 v 74.08 c 0,6.582 -0.049,12.471 -1.676,16.846 -1.699,4.568 -5.505,6.821 -11.553,6.966 -6.309,0.151 -10.847,-1.43 -13.052,-5.467 -2.121,-3.883 -2.442,-9.396 -2.293,-16.228 h 8.819 c 0.245,4.636 -0.546,9.627 1.235,12.612 1.527,2.56 6.392,2.626 8.201,0.352 2.068,-2.597 1.764,-8.103 1.764,-13.228 v -12.876 c -0.827,1.006 -1.354,1.991 -2.205,2.822 -4.069,3.973 -12.866,4.09 -15.786,-0.882 -1.989,-3.386 -2.028,-9.023 -2.028,-14.64 v -33.336 c 0,-9.298 0.061,-18.017 8.378,-18.697 5.953,-0.486 9.354,2.275 11.641,5.908"
         style="fill:#ffffff"
         id="path12" /><path
         d="m 98.151,496.082 c 0,-6.201 0.351,-13.357 -6.085,-12.786 -5.11,0.451 -5.027,6.807 -5.027,12.521 v 14.024 c 3.528,0.205 7.437,0.029 11.112,0.088 z m 8.819,20.99 H 87.039 v 12.964 c 0,4.085 -0.121,9.028 1.763,11.2 1.721,1.983 5.942,1.924 7.585,0 2.914,-3.413 1.277,-11.504 1.764,-17.197 h 8.819 c -0.183,7.943 0.514,14.789 -2.205,20.196 -1.86,3.7 -6.043,5.454 -11.112,5.645 -5.184,0.193 -9.865,-1.061 -12.258,-4.41 -2.785,-3.897 -2.999,-11.15 -2.999,-18.079 v -21.079 c 0,-7.57 -0.364,-14.729 0.794,-20.283 1.304,-6.259 4.631,-9.44 11.465,-9.878 6.965,-0.445 11.68,1.318 13.934,5.468 2.284,4.205 2.381,10.204 2.381,16.58 z"
         style="fill:#ffffff"
         id="path14" /><path
         d="m 148.155,548.204 h -8.378 v -48.241 c 0,-5.055 0.523,-11.394 -1.499,-14.552 -1.697,-2.65 -6.895,-2.78 -8.731,-0.088 -2.095,3.072 -1.588,9.548 -1.588,14.552 v 48.329 h -8.378 v -70.377 h 7.849 c 0.207,1.352 0.371,2.746 0.529,4.145 1.963,-2.721 4.554,-5.457 8.996,-5.821 11.349,-0.926 11.2,8.926 11.2,19.578 z"
         style="fill:#ffffff"
         id="path16" /><path
         d="m 193.132,497.846 c 0,9.196 0,20.624 0,29.809 0,5.018 -0.416,10.863 1.587,13.405 1.654,2.096 5.793,1.901 7.32,0.528 2.455,-2.205 2.205,-8.402 2.205,-13.493 0,-10.719 0.001,-20.319 0,-31.395 0,-6.442 0.397,-14.163 -6.261,-13.317 -5.486,0.695 -4.851,8.254 -4.851,14.463 m 3.439,-21.607 c 5.01,-0.392 9.74,0.503 12.347,2.998 4.961,4.747 4.145,16.452 4.145,26.37 0.001,5.188 0,10.388 0,15.257 0.001,10.001 0.789,21.609 -4.41,26.192 -2.86,2.522 -7.631,3.206 -12.346,2.734 -4.383,-0.438 -7.887,-2.213 -9.613,-5.643 -1.832,-3.645 -2.179,-8.982 -2.293,-14.729 -0.121,-6.142 0,-11.223 0,-16.932 0,-6.122 -0.267,-11.38 0,-17.021 0.24,-5.073 0.535,-10.936 2.558,-14.375 1.807,-3.074 5.412,-4.523 9.612,-4.851"
         style="fill:#ffffff"
         id="path18" /><path
         d="m 234.053,498.288 v 30.778 c 0,5.067 -0.232,11.019 2.557,12.876 1.797,1.197 5.157,0.821 6.438,-0.353 2.408,-2.204 2.117,-8.58 2.117,-13.581 -0.001,-10.538 0,-20.437 0,-31.396 -0.001,-6.485 0.346,-14.068 -6.262,-13.228 -5.594,0.709 -4.85,8.646 -4.85,14.904 m 3.439,-22.049 c 6.264,-0.489 11.866,0.979 14.199,5.557 2.509,4.924 2.293,13.39 2.293,21.342 0.001,8.088 0,15.627 0,23.546 0.001,7.771 -0.124,15.857 -3.88,19.756 -3.666,3.804 -12.784,4.746 -18.432,1.764 -5.398,-2.851 -6.055,-9.716 -6.35,-18.256 -0.206,-5.96 0,-11.197 0,-16.845 0,-5.749 -0.127,-11.642 0,-16.932 0.124,-5.186 0.472,-10.994 2.293,-14.552 1.771,-3.46 5.45,-5.033 9.877,-5.38"
         style="fill:#ffffff"
         id="path20" /><path
         d="m 359.372,548.204 h -8.378 c 10e-4,-15.498 -0.001,-31.815 0,-47.889 0,-5.063 0.572,-11.291 -1.322,-14.638 -1.24,-2.194 -4.961,-3.229 -7.586,-1.588 -3.223,2.015 -2.821,8.68 -2.821,13.934 v 50.092 c -2.646,0.205 -5.673,0.03 -8.466,0.089 v -70.377 h 7.848 c 0.23,1.329 0.382,2.734 0.529,4.145 1.984,-2.699 4.556,-5.457 8.996,-5.821 11.296,-0.923 11.2,8.77 11.2,19.49 10e-4,17.23 0,36.413 0,52.563"
         style="fill:#ffffff"
         id="path22" /><path
         d="m 309.456,477.827 h 8.378 c -0.059,23.43 0.118,47.093 -0.088,70.377 h -8.29 c -0.206,-23.194 -0.029,-46.771 -0.088,-70.112 -0.008,-0.125 -0.015,-0.249 0.088,-0.265"
         style="fill:#ffffff"
         id="path24" /><path
         d="m 372.336,477.827 h 8.379 c 0.002,15.116 -0.002,31.862 0,47.888 0,6.217 -0.963,14.989 3.615,16.669 2.69,0.985 5.449,-0.098 6.527,-1.853 1.993,-3.247 1.499,-9.513 1.499,-14.552 -10e-4,-16.056 0.001,-32.517 0,-48.152 h 8.554 v 70.288 c -2.44,0.205 -5.261,0.03 -7.849,0.089 -0.317,-1.329 -0.487,-2.806 -0.705,-4.233 -1.807,3.354 -5.819,5.964 -11.201,5.732 -8.975,-0.388 -8.908,-9.738 -8.907,-19.314 0.002,-17.351 -0.002,-35.448 0,-52.297 -0.008,-0.125 -0.015,-0.249 0.088,-0.265"
         style="fill:#ffffff"
         id="path26" /><path
         d="m 409.641,477.827 h 8.73 c 2.042,8.57 4.032,17.193 5.998,25.84 2.07,-8.513 3.945,-17.221 5.909,-25.84 h 8.025 c -2.969,10.447 -5.812,21.085 -8.819,31.838 -0.204,0.727 -0.607,1.496 -0.617,2.027 -0.024,1.104 0.996,3.447 1.323,4.586 3.057,10.661 6.02,21.384 9.083,31.926 h -9.083 c -2.311,-9.654 -4.659,-19.271 -6.879,-29.016 -2.402,9.565 -4.613,19.317 -6.88,29.016 h -8.024 c 3.071,-10.548 6.053,-21.276 9.171,-32.102 0.426,-1.481 1.305,-3.228 1.323,-4.498 0.015,-1.143 -0.771,-2.875 -1.147,-4.233 -2.707,-9.773 -5.403,-19.629 -8.113,-29.279 0.018,-0.152 -0.15,-0.229 0,-0.265"
         style="fill:#ffffff"
         id="path28" /></g><g
       id="g5680"><path
         id="path2973"
         d="m 63.788,329.787 c 0.042,-16.446 14.023,-39.407 33.889,-60.268 13.275,-13.94 26.758,-26.177 56.15,-51.237 C 133.496,207.126 101.877,193.667 86.011,176.04 80.141,169.518 69.501,154.742 71.565,135 75.771,94.765 125.433,33.703 196.024,20.793 c 23.488,-4.295 50.455,-1.194 72.65,8.784 69.629,31.304 154.782,109.073 165.259,147.046 3.688,13.366 2.979,34.671 -3.378,46.544 -7.88,14.717 -35.157,44.607 -72.476,75.45 -58.556,48.394 -140.611,100.359 -201.881,109.103 -19.797,2.826 -40.024,-0.121 -54.218,-8.131 C 79.772,387.058 72.4,370.328 69.808,365.313 62.917,351.978 63.773,335.085 63.788,329.787 Z M 228.587,145.011 c 0.756,-9.325 37.322,-0.041 35.011,7.344 -2.437,7.79 -35.878,3.354 -35.011,-7.344 z"
         style="fill:url(#_Linear1)" /><g
         id="mid"><path
           id="path2975"
           d="m 173.616,202.874 c -19.241,16.246 -32.035,27.2 -48.075,41.86 -38.626,35.303 -64.87,62.176 -51.34,98.909 15.609,42.374 49.824,40.226 89.947,32.349 C 267.569,355.595 437.574,224.898 428.909,176.623 421.898,137.562 326.918,59.902 270.682,32.267 253.114,23.633 232.866,19.168 212.558,20.124 135.231,23.773 74.844,94.176 77.929,132.321 c 3.001,37.11 96.794,69.446 95.687,70.553 z M 162.009,73.321 c -23.268,25.887 -8.391,75.974 30.196,103.274 45.151,31.944 118.268,37.728 132.818,13.093 27.14,-45.952 -2.492,-94.54 -46.726,-116.214 C 234.586,52.056 176.513,57.183 162.009,73.321 Z"
           style="fill:url(#_Linear2)" /><path
           id="path4976"
           d="m 241.361,175.509 c 32.665,4.54 60.822,-8.542 65.225,-40.798 3.353,-24.571 -34.251,-51.417 -56.86,-57.609 -18.88,-5.17 -59.869,1.479 -62.632,37.187 -2.873,37.121 35.22,58.572 54.267,61.22 z M 225.364,113.77 c -21.468,33.258 31.17,43.483 39.229,37.417 34.744,-26.148 -29.771,-52.069 -39.229,-37.417 z"
           style="fill:url(#_Radial3)" /></g><path
         id="path2977"
         d="m 206.325,28.96 c -37.973,4.002 -45.246,8.89 -79.647,34.917 -11.529,8.723 -32.75,29.948 -38.187,55.128 -2.071,9.59 0.377,17.869 7.284,23.676 22.115,18.593 59.13,33.677 89.497,48.259 8.895,4.271 3.005,12.015 -11.338,24.432 -36.193,31.334 -85.128,69.476 -88.544,98.539 -1.609,13.696 3.079,32.306 19.703,41.829 19.418,11.125 59.729,3.864 86.645,-6.159 39.334,-14.647 91.003,-46.973 132.023,-78.749 42.656,-33.042 82.316,-75.01 84.278,-81.855 2.409,-8.406 2.169,-16.17 -2.481,-25.096 -7.3,-14.017 -17.061,-24.433 -27.542,-36.091 C 349.895,98.143 320.141,72.093 284.542,52.13 258.834,37.714 236.216,25.81 206.325,28.96 Z m 55.781,66.467 c 27.434,13.263 55.607,48.102 -0.244,68.154 -15.188,5.452 -63.353,-13.391 -61.879,-39.107 2.151,-37.987 28.626,-45.242 62.123,-29.047 z"
         style="fill:url(#_Radial4)" /></g></g><defs
     id="defs91"><linearGradient
       id="_Linear1"
       x1="0"
       y1="0"
       x2="1"
       y2="0"
       gradientUnits="userSpaceOnUse"
       gradientTransform="matrix(244.692,1281.55,-1281.55,244.692,5.26495,-872.781)"><stop
         offset="0%"
         style="stop-color:#fff;stop-opacity:1"
         id="stop39" /><stop
         offset="34%"
         style="stop-color:#fff;stop-opacity:1"
         id="stop41" /><stop
         offset="51%"
         style="stop-color:#bebdf3;stop-opacity:1"
         id="stop43" /><stop
         offset="75%"
         style="stop-color:#867fb7;stop-opacity:1"
         id="stop45" /><stop
         offset="87%"
         style="stop-color:#9f99c7;stop-opacity:1"
         id="stop47" /><stop
         offset="100%"
         style="stop-color:#524c76;stop-opacity:1"
         id="stop49" /></linearGradient><linearGradient
       id="_Linear2"
       x1="0"
       y1="0"
       x2="1"
       y2="0"
       gradientUnits="userSpaceOnUse"
       gradientTransform="matrix(-73.9103,-331.394,331.394,-73.9103,306.28,306.967)"><stop
         offset="0%"
         style="stop-color:#fff;stop-opacity:1"
         id="stop52" /><stop
         offset="34%"
         style="stop-color:#fff;stop-opacity:1"
         id="stop54" /><stop
         offset="51%"
         style="stop-color:#bebbdb;stop-opacity:1"
         id="stop56" /><stop
         offset="75%"
         style="stop-color:#928bbe;stop-opacity:1"
         id="stop58" /><stop
         offset="87%"
         style="stop-color:#9f99c7;stop-opacity:1"
         id="stop60" /><stop
         offset="100%"
         style="stop-color:#524c76;stop-opacity:1"
         id="stop62" /></linearGradient><radialGradient
       id="_Radial3"
       cx="0"
       cy="0"
       r="1"
       gradientUnits="userSpaceOnUse"
       gradientTransform="matrix(65.7758,0,0,50.4149,219.576,105.5)"><stop
         offset="0%"
         style="stop-color:#fff;stop-opacity:1"
         id="stop65" /><stop
         offset="34%"
         style="stop-color:#fff;stop-opacity:1"
         id="stop67" /><stop
         offset="51%"
         style="stop-color:#bebbdb;stop-opacity:1"
         id="stop69" /><stop
         offset="75%"
         style="stop-color:#928bbe;stop-opacity:1"
         id="stop71" /><stop
         offset="87%"
         style="stop-color:#9f99c7;stop-opacity:1"
         id="stop73" /><stop
         offset="100%"
         style="stop-color:#524c76;stop-opacity:1"
         id="stop75" /></radialGradient><radialGradient
       id="_Radial4"
       cx="0"
       cy="0"
       r="1"
       gradientUnits="userSpaceOnUse"
       gradientTransform="matrix(-9.01713,572.145,-487.965,-7.68295,69.926,121.634)"><stop
         offset="0%"
         style="stop-color:#fff;stop-opacity:1"
         id="stop78" /><stop
         offset="34%"
         style="stop-color:#fff;stop-opacity:1"
         id="stop80" /><stop
         offset="51%"
         style="stop-color:#bebbdb;stop-opacity:1"
         id="stop82" /><stop
         offset="75%"
         style="stop-color:#928bbe;stop-opacity:1"
         id="stop84" /><stop
         offset="87%"
         style="stop-color:#9f99c7;stop-opacity:1"
         id="stop86" /><stop
         offset="100%"
         style="stop-color:#524c76;stop-opacity:1"
         id="stop88" /></radialGradient></defs></svg>
