/* XPM */
static char *gv_icon[] = {
/* columns rows colors chars-per-pixel */
"50 50 2 1",
"  c #FFFFFF",
". c #000000",
/* pixels */
" . . . . . . . . . . . . . . . . . . . . . . . . .",
". . . . . . . . . . . . . . . . . . . . . . . . . ",
" . . . . . . . . . . . . . . . . . . . . . . . . .",
". . . . . . . . . . . . . . . . . . . . . . . . . ",
" . . . . . . .   .   . .     .   .   . . . . . . .",
". . . . . . .  .   .  .  . .       .    . . . . . ",
" . . . .    .     .            .       . .   . . .",
". . . . . . . . .            .     . .  . . . . . ",
" . . . . .    .                        .   . . . .",
". . . . .   .        ......     .     . .   . . . ",
" . . .   .    .     ..    ...     . .      . . . .",
". . .  .   .       ..       ..          . . . . . ",
" . . .    .  .    ..         .  .  . .  .  . . . .",
". . . . .         ..          .             . . . ",
" . . .    . .     ..          .   .    .   . . . .",
". . .  .       .  ..         ..           . . . . ",
" . . .            ...       ..        .  . . . . .",
". . . .  ....      ..      ..             . . . . ",
" . . .   .. ..     ...     .      ....     . . . .",
". . . . ...  .      ..     .     ..  ..   . . . . ",
" . . .  ...  ...    .      .    ..    .  . . . . .",
". . .    ...   .....       ..  ..   ...   . . . . ",
" . . .    ...               ....   ..    . . . . .",
". . . .    ....                   ..      . . . . ",
" . . .       ...                 ..      . . . . .",
". . . . .. .  ...               ..        . . . . ",
" . . .         ...             ..          . . . .",
". . .  .        ..             ..    .  .   . . . ",
" . . .  . . .   ...           ..          .  . . .",
". . . . .       ...          ..     .   .   . . . ",
" . . .    .      ..          .             . . . .",
". . . .      .   ...        ..    .  .      . . . ",
" . . .  .  .      ...       .        .   . . . . .",
". . . .       .    ..       ..  .         . . . . ",
" . . .  .  .       ...      ..    .      . . . . .",
". . .               ...      .            . . . . ",
" . . .  .  . .      ...      ..   ..   . . . . . .",
". . . .         .    ...     .......      . . . . ",
" . . .  . .    .     ...      .... .     . . . . .",
". . . .         .     ...         ..   .  . . . . ",
" . . . . .  . .        ....      ..        . . . .",
". . . .    .      .     ..........    . . . . . . ",
" . . . . .    .      .    .......          . . . .",
". . . . .   .   .                   . . . . . . . ",
" . . . . . . . .  .  . .    .    .       . . . . .",
". . . . . . . . . . . . . . . .   . . . . . . . . ",
" . . . . . . . . . . . . . . . . . . . . . . . . .",
". . . . . . . . . . . . . . . . . . . . . . . . . ",
" . . . . . . . . . . . . . . . . . . . . . . . . .",
". . . . . . . . . . . . . . . . . . . . . . . . . "
};
