/* XPM */
static char * xtris_xpm[] = {
"34 34 4 1",
" 	c None",
".	c #00F000",
"+	c #007000",
"@	c #00A800",
"                                  ",
" ................................ ",
" ...............+...............+ ",
" ..@@@@@@@@@@@@++..@@@@@@@@@@@@++ ",
" ..@@@@@@@@@@@@++..@@@@@@@@@@@@++ ",
" ..@@@@@@@@@@@@++..@@@@@@@@@@@@++ ",
" ..@@@@@@@@@@@@++..@@@@@@@@@@@@++ ",
" ..@@@@@@@@@@@@++..@@@@@@@@@@@@++ ",
" ..@@@@@@@@@@@@++..@@@@@@@@@@@@++ ",
" ..@@@@@@@@@@@@++..@@@@@@@@@@@@++ ",
" ..@@@@@@@@@@@@++..@@@@@@@@@@@@++ ",
" ..@@@@@@@@@@@@++..@@@@@@@@@@@@++ ",
" ..@@@@@@@@@@@@++..@@@@@@@@@@@@++ ",
" ..@@@@@@@@@@@@++..@@@@@@@@@@@@++ ",
" ..@@@@@@@@@@@@++..@@@@@@@@@@@@++ ",
" .+++++++++++++++.+++++++++++++++ ",
" ++++++++++++++++++++++++++++++++ ",
" ................................ ",
" ...............+...............+ ",
" ..@@@@@@@@@@@@++..@@@@@@@@@@@@++ ",
" ..@@@@@@@@@@@@++..@@@@@@@@@@@@++ ",
" ..@@@@@@@@@@@@++..@@@@@@@@@@@@++ ",
" ..@@@@@@@@@@@@++..@@@@@@@@@@@@++ ",
" ..@@@@@@@@@@@@++..@@@@@@@@@@@@++ ",
" ..@@@@@@@@@@@@++..@@@@@@@@@@@@++ ",
" ..@@@@@@@@@@@@++..@@@@@@@@@@@@++ ",
" ..@@@@@@@@@@@@++..@@@@@@@@@@@@++ ",
" ..@@@@@@@@@@@@++..@@@@@@@@@@@@++ ",
" ..@@@@@@@@@@@@++..@@@@@@@@@@@@++ ",
" ..@@@@@@@@@@@@++..@@@@@@@@@@@@++ ",
" ..@@@@@@@@@@@@++..@@@@@@@@@@@@++ ",
" .+++++++++++++++.+++++++++++++++ ",
" ++++++++++++++++++++++++++++++++ ",
"                                  "};
