<?xml version="1.0" encoding="UTF-8" standalone="no"?>
<!-- Created with Inkscape (http://www.inkscape.org/) -->

<svg
   xmlns:dc="http://purl.org/dc/elements/1.1/"
   xmlns:cc="http://creativecommons.org/ns#"
   xmlns:rdf="http://www.w3.org/1999/02/22-rdf-syntax-ns#"
   xmlns:svg="http://www.w3.org/2000/svg"
   xmlns="http://www.w3.org/2000/svg"
   xmlns:sodipodi="http://sodipodi.sourceforge.net/DTD/sodipodi-0.dtd"
   xmlns:inkscape="http://www.inkscape.org/namespaces/inkscape"
   width="256"
   height="256"
   id="svg2"
   version="1.1"
   inkscape:version="0.47 r22583"
   sodipodi:docname="vim.svg">
  <defs
     id="defs4">
    <inkscape:perspective
       sodipodi:type="inkscape:persp3d"
       inkscape:vp_x="0 : 526.18109 : 1"
       inkscape:vp_y="0 : 1000 : 0"
       inkscape:vp_z="744.09448 : 526.18109 : 1"
       inkscape:persp3d-origin="372.04724 : 350.78739 : 1"
       id="perspective10" />
    <inkscape:perspective
       id="perspective2884"
       inkscape:persp3d-origin="0.5 : 0.33333333 : 1"
       inkscape:vp_z="1 : 0.5 : 1"
       inkscape:vp_y="0 : 1000 : 0"
       inkscape:vp_x="0 : 0.5 : 1"
       sodipodi:type="inkscape:persp3d" />
  </defs>
  <sodipodi:namedview
     id="base"
     pagecolor="#ffffff"
     bordercolor="#666666"
     borderopacity="1.0"
     inkscape:pageopacity="0.0"
     inkscape:pageshadow="2"
     inkscape:zoom="0.7"
     inkscape:cx="107.83967"
     inkscape:cy="146.01885"
     inkscape:document-units="px"
     inkscape:current-layer="layer1"
     showgrid="false"
     inkscape:window-width="743"
     inkscape:window-height="605"
     inkscape:window-x="88"
     inkscape:window-y="321"
     inkscape:window-maximized="0" />
  <metadata
     id="metadata7">
    <rdf:RDF>
      <cc:Work
         rdf:about="">
        <dc:format>image/svg+xml</dc:format>
        <dc:type
           rdf:resource="http://purl.org/dc/dcmitype/StillImage" />
        <dc:title></dc:title>
      </cc:Work>
    </rdf:RDF>
  </metadata>
  <g
     inkscape:label="Layer 1"
     inkscape:groupmode="layer"
     id="layer1"
     transform="translate(0,-796.36218)">
    <path
       style="fill:#19953f;fill-opacity:1;stroke:#000000;stroke-width:5;stroke-linecap:butt;stroke-linejoin:miter;stroke-miterlimit:4;stroke-opacity:1;stroke-dasharray:none"
       d="M 128.02596,805.31213 8.0259779,926.7407 127.31168,1046.0264 l 120,-120.71427 -119.28572,-120 z"
       id="path2890" />
    <path
       style="fill:#d0d0cf;fill-opacity:1;stroke:#000000;stroke-width:5;stroke-linecap:butt;stroke-linejoin:miter;stroke-miterlimit:4;stroke-opacity:1;stroke-dasharray:none"
       d="m 26.24294,816.92274 -5,5 0,19.28572 5.446429,5.26785 7.232142,0.17858 0.178571,168.12501 7.142857,7.1429 22.142858,0 177.142853,-180.00006 0,-18.57143 -5,-5 -80,-0.71428 -5,7.14285 0,15.71429 5,6.42857 6.42857,0 -62.142855,60.00001 0.625005,-59.73215 7.14285,-10e-6 5.80357,-5.98214 0,-15.71429 -6.42857,-7.14286 -80.71428,-1.42857 0,10e-6 z"
       id="path3664"
       sodipodi:nodetypes="cccccccccccccccccccccccc" />
    <path
       style="fill:#d0d0cf;fill-opacity:1;stroke:#000000;stroke-width:5;stroke-linecap:butt;stroke-linejoin:miter;stroke-miterlimit:4;stroke-opacity:1;stroke-dasharray:none"
       d="m 136.90826,933.24978 4.28572,-3.57143 12.14285,0.35715 3.92857,3.92857 -4.28571,12.14286 -3.57143,3.21428 -12.64794,-0.14794 -3.42349,-4.13777 3.57143,-11.78572 z"
       id="path3666"
       sodipodi:nodetypes="ccccccccc" />
    <path
       style="fill:#d0d0cf;fill-opacity:1;stroke:#000000;stroke-width:5;stroke-linecap:butt;stroke-linejoin:miter;stroke-miterlimit:4;stroke-opacity:1;stroke-dasharray:none"
       d="m 121.90826,956.10693 28.57143,0.35714 -15,45.00003 5.35714,0 -3.21428,8.9285 -26.78572,-0.3571 14.64286,-43.21429 -7.14286,0.35714 3.57143,-11.07142 z"
       id="path3668" />
    <path
       style="fill:#d0d0cf;fill-opacity:1;stroke:#000000;stroke-width:5;stroke-linecap:butt;stroke-linejoin:miter;stroke-miterlimit:4;stroke-opacity:1;stroke-dasharray:none"
       d="m 157.2654,956.46407 -3.71936,9.68618 6.82905,0 -15.25254,44.24235 23.57143,0 3.40554,-8.7193 -6.11475,-0.4005 8.42349,-26.2373 15,-0.35715 -11.07143,34.99995 23.15301,0.3572 2.91579,-8.2576 -5.56371,-0.1633 9.13777,-26.5791 12.85714,0 -11.07143,35 24.32904,0.2525 3.00508,-8.2729 -5.81626,-0.1939 11.69643,-37.14285 -4.64286,-7.5 -14.64285,0 -5.71429,5.71429 -5.71429,0 -6.07142,-6.07143 -12.5,0 -5.35715,5.35714 -6.07143,0 -6.07142,-5.71428 -18.92858,0 z"
       id="path3670"
       sodipodi:nodetypes="cccccccccccccccccccccccccccccc" />
  </g>
</svg>
