/* XPM */
static char *magick[] = {
/* columns rows colors chars-per-pixel */
"32 32 8 1",
"  c Gray0",
". c #000080",
"X c #008000",
"o c Green",
"O c #808080",
"+ c #c0c0c0",
"@ c Gray100",
"# c None",
/* pixels */
"###############  ###############",
"############## oo ##############",
"###           oXXo #         ###",
"## @@@@@@@@@@@ XXXo @@@@@@@@@ ##",
"## @+++++++++++ XXX @+++++++++ #",
"### ++++++++++O XXXX ++++++++O #",
"#### O++++++OO XXXXXX O+++++OO #",
"#### @++++++O XXXXXX @+++++OO ##",
"#### @++++++O XXXXX @@++++OO ###",
"#### @++++++O XXXX @@++++OO ####",
"#### @++++++O XXX @@++++OO #####",
"#### @++++++O XX @@++++OO . ####",
"###  @++++++O X @@++++OO XX. ###",
"## o @++++++O  @@++++OO XXXX. ##",
"# oX @++++++O @@++++OO XXXXXX. #",
" oXX @++++++O@@++++OO XXXXXXXX. ",
" oXX @++++++O@++++OO XXXXXXXXX. ",
"# oX @++++++O++++OO XXXXXXXXX. #",
"## o @++++++++++   XXXXXXXXX. ##",
"###  @+++++++++ ++ XXXXXXXX. ###",
"#### @+++++++++ ++ XXXXXXX. ####",
"#### @++++++++O   X   X      ###",
"#### @+++++++O +++ +++ +++ ++ ##",
"#### @++++++OO  ++  ++++++++++ #",
"#### @+++++OO  ++   ++..++  + ##",
"#### @++++OO X ++  ++. ++  ++ ##",
"#### @+++OO XX ++  ++  ++  ++ ##",
"#### @++OO  X ++  ++  ++  ++ ###",
"##### +OO ##  +++ ++  ++  +++ ##",
"######   ####    .  ##  ##   ###",
"############## .. ##############",
"###############  ###############"
};
