/* XPM */
static char *teeworlds__[] = {
/* columns rows colors chars-per-pixel */
"48 48 12 1",
"  c #000000",
". c #800000",
"X c #FF0000",
"o c #008000",
"O c #808000",
"+ c #FFFF00",
"@ c #000080",
"# c #800080",
"$ c #008080",
"% c #808080",
"& c #C0C0C0",
"* c None",
/* pixels */
"*********************%%.%%%*********************",
"*****************%            %*****************",
"***************     .%O%OOO.     ***************",
"*************   ..%+&++++++++&O   @*************",
"***********%   O&&++++++++++++++%   ************",
"**********O  .+&&+++++++++++++++++O  %**********",
"*********@  O&&&+++++++++++++++++++%  %*********",
"********  .O&+++++++++++++++++++++++%  %********",
"*******%  O+&++++++++++++++++++++++++%  ********",
"*******  O+&&+++++++++++++++++++++++++%  *******",
"******  O+X&+++++++++++++++++++++++++++O .******",
"*****% .OX++++++++++++++++++++++++++++++  ******",
"*****  .++++++++++++   +++++O@ ++++++++++  *****",
"****%  ++X+++++++++     +++O  . +++++++++  *****",
"****  O+X++++++++++     +++     +++++++++O %****",
"****  X++X+++++++++     +++     ++++++++++  ****",
"****  ++X+&++++++++     +++     ++++++++++  ****",
"***% .+X+O+++++++++     +++     ++++++++++O ****",
"***% O++X+&++++++++     +++     ++++++++++% %***",
"***  O+X+++++++++++     +++O    ++++++++++O %***",
"***  OX+X+X+++++++++   +++++   +++++++++++& .***",
"***  ++++X+&++++++++++++++++++++++++++++++O $***",
"***  OX+X++%++++++++++++++++++++++++++++++% .***",
"***  O+O++X+++++++++++++++++++++++++++++++% %***",
"***  O+X+X+++++++++++++++++++++++++++++++&O %***",
"***% .+O++X+X+++++++++++++++++++++++++++++  ****",
"****  +X+X+++%+++++++++++++++++++++++++++&  ****",
"****  O++O+OX+&++++++++++++++++++++++++++%  ****",
"****% .+X+X++++&+++++++++++++++++++++++++. %****",
"*****  O+O+X+OX+&+++++++++++++++++++++++%  *****",
"*****  O+X++X+++++++++++++++++++++++++++@ %*****",
"******  OO+X++X+X++++++++++++++++++++++%  ******",
"******%  ++O+X++O+++++++++++++++++++++&  %******",
"*******  .O o   .O.O+&+++++++++++++++&. %*******",
"******%    O.OOO#o.  OO+&+++++++++++&.  ********",
"*****%  .O+X&X+X+X%+.  OX++&+&+&X+X+     *******",
"*****  .%OX+O+%O+&+X&+O oO+X+X++++O .OO   ******",
"****% .OO+%+&X+&+X+%+X&X .+O++X+O. #%+X+.  *****",
"****  O+X+X+X+%+X&++%+O+% O+X+OO .O+X+&OO. *****",
"****  OX+%+O%+%+%+&X+&X+XO OO  .O%+%+%X+%O $****",
"****  +OOX+X+X+X+X+%+X+%+.  ..O%X+X+X+%+X% .****",
"****  OX+%+%+%+%+%+%+%+X+. O+%+O+%+%+%+X+O  ****",
"****  OOX+X+X+X+OX+X+X+OO.OX+X+XOX+X+X+OO  %****",
"****%  OOOOOOO+XO+OOOOO.  OOOOOO+OOOOOO.   %****",
"*****                                     %*****",
"*******                                .%*******",
"***********%%%%%%%%%%%**%%%%%%%%%%%%************",
"************************************************"
};
