/* XPM */
static char * pl15_xpm[] = {
"15 15 3 1",
" 	c None",
".	c #FFFFFF",
"+	c #FF0000",
"...............",
"...............",
"...............",
"...............",
"...............",
"...............",
"...............",
"+++++++++++++++",
"+++++++++++++++",
"+++++++++++++++",
"+++++++++++++++",
"+++++++++++++++",
"+++++++++++++++",
"+++++++++++++++",
"+++++++++++++++"};
