/* XPM */
static char * icon_xpm[] = {
"32 32 6 1",
" 	c None",
".	c #800000",
"+	c #FF8204",
"@	c #FC4E04",
"#	c #FCA204",
"$	c #FEC489",
"                                ",
"                                ",
"                                ",
"               .                ",
"  ++++++++++  .@.               ",
"  +########$ .@@@$              ",
"  +#$$$$$$$$  $@$               ",
"  +#$          $                ",
"  +#$                           ",
"  +#$                           ",
"  +#$   ++++         +++   +++  ",
"  +#$   +####        +#$   +#$  ",
"  +#$   +####+       +#$   +#$  ",
"  +#$   +#$####      +#$   +#$  ",
"  +#$   +#$ $##+     +#$   +#$  ",
"  +#$   +#$  ####    +#$   +#$  ",
"  +#$   +#$   $##+   +#$   +#$  ",
"  +#$   +#$    ####  +#$   +#$  ",
"  +#$   +#$     $##+ +#$   +#$  ",
"  +#$   +#$      ######$   +#$  ",
"  +#$   +#$       $####$   +#$  ",
"  +#$   +#$        ####$   +#$  ",
"  $$$   $$$         $$$$   +#$  ",
"                           +#$  ",
"                           +#$  ",
"                .          +#$  ",
"               .@.  ++++++++#$  ",
"              .@@@$ +########$  ",
"               $@$  $$$$$$$$$$  ",
"                $               ",
"                                ",
"                                "};
